<?xml version="1.0" standalone="no"?>
<!DOCTYPE svg PUBLIC "-//W3C//DTD SVG 20010904//EN"
 "http://www.w3.org/TR/2001/REC-SVG-20010904/DTD/svg10.dtd">
<svg version="1.0" xmlns="http://www.w3.org/2000/svg"
 width="1500.000000pt" height="1150.000000pt" viewBox="0 0 1500.000000 1150.000000"
 preserveAspectRatio="xMidYMid meet">
<metadata>
Created by potrace 1.13, written by Peter Selinger 2001-2015
</metadata>
<g transform="translate(0.000000,1150.000000) scale(0.100000,-0.100000)"
fill="#000000" stroke="none">
<path d="M10568 7580 c-37 -5 -71 -11 -76 -14 -5 -3 -67 -12 -138 -21 -169
-20 -342 -64 -439 -111 -76 -37 -79 -38 -234 -45 -86 -4 -174 -12 -196 -19
-53 -16 -132 -56 -142 -72 -4 -7 -21 -20 -38 -28 -16 -8 -74 -58 -127 -111
-74 -72 -99 -104 -104 -130 -4 -19 -13 -43 -19 -54 -7 -11 -13 -48 -14 -83 -2
-57 -10 -78 -85 -230 -130 -261 -177 -437 -205 -767 -8 -97 -14 -120 -50 -198
-57 -123 -71 -178 -71 -274 0 -117 14 -164 66 -222 42 -46 43 -49 33 -86 -6
-21 -46 -91 -88 -154 -146 -218 -314 -536 -326 -616 -7 -47 15 -89 67 -128 46
-34 87 -44 208 -51 79 -5 111 -11 130 -24 16 -12 42 -63 77 -146 48 -118 57
-133 114 -187 l61 -59 -27 -38 c-16 -20 -38 -48 -50 -62 -71 -79 -72 -141 -6
-266 70 -130 86 -229 56 -344 -8 -32 -24 -111 -35 -176 -19 -110 -19 -121 -5
-172 21 -71 109 -164 173 -183 52 -15 124 0 447 97 233 70 362 120 438 171 27
18 69 38 93 44 40 10 47 9 89 -16 25 -14 61 -47 80 -73 45 -61 105 -244 140
-432 29 -152 30 -224 4 -308 -11 -38 -19 -47 -69 -72 -41 -21 -86 -59 -156
-133 -95 -101 -293 -284 -365 -339 -62 -47 -312 -169 -409 -200 -181 -56 -247
-68 -380 -68 -186 0 -350 -16 -403 -39 -25 -11 -96 -53 -159 -94 -62 -41 -159
-98 -215 -125 -119 -59 -185 -103 -314 -207 -52 -41 -155 -109 -231 -151 -171
-94 -246 -151 -421 -320 -76 -75 -161 -148 -192 -165 -55 -31 -68 -52 -39 -63
9 -3 1809 -6 4000 -6 l3985 0 -3 378 c-3 417 -3 415 -67 454 -20 12 -56 39
-81 59 -48 39 -159 98 -225 119 -65 21 -111 47 -198 114 -45 35 -137 103 -205
152 -68 49 -146 106 -175 127 -61 45 -312 178 -391 207 -69 26 -218 124 -266
174 -19 21 -71 59 -115 86 -44 27 -99 69 -122 93 -22 25 -74 69 -115 99 -116
87 -89 36 -327 615 -156 377 -163 399 -202 575 -62 287 -61 273 -33 631 l25
317 65 203 c36 111 77 238 91 282 14 44 38 110 54 146 32 75 62 203 78 334 29
242 39 570 21 700 -14 99 -58 262 -85 316 -23 44 -46 124 -59 200 -4 20 -22
57 -41 82 -19 25 -35 57 -35 71 0 13 -20 53 -45 88 -24 35 -57 86 -71 113 -50
93 -423 449 -600 572 -35 25 -196 91 -311 127 -103 33 -376 101 -483 119 -102
18 -418 29 -512 17z m244 -192 c47 -26 83 -73 98 -128 9 -33 15 -38 48 -44
106 -16 139 -173 53 -250 -25 -23 -28 -11 -4 16 10 12 18 42 21 78 4 55 2 61
-26 90 -24 24 -39 30 -71 30 -35 0 -41 3 -41 22 0 34 -38 105 -71 133 -89 74
-247 42 -296 -61 -15 -29 -22 -34 -53 -34 -57 0 -124 -27 -161 -66 -30 -31
-34 -41 -33 -87 0 -60 22 -107 67 -149 41 -36 21 -36 -30 1 -67 49 -96 134
-69 204 30 80 116 137 205 137 31 0 38 5 49 30 43 95 209 136 314 78z m1 -168
l48 0 -3 -87 -3 -88 -172 -3 -173 -2 0 96 0 97 128 -6 c70 -4 149 -7 175 -7z
m-325 -136 l3 -51 185 -8 c102 -4 187 -5 189 -3 2 2 13 74 14 101 1 4 22 7 49
5 44 -3 47 -5 46 -30 -1 -16 -2 -91 -2 -168 l-2 -140 -49 0 -50 0 -3 53 -3 52
-192 3 -193 2 0 -50 0 -50 -51 0 -52 0 6 98 c4 53 7 130 7 170 l0 73 48 -3 47
-3 3 -51z m285 -204 l78 0 -3 -142 -3 -143 -170 0 -170 0 -3 149 -3 149 98 -6
c54 -4 133 -7 176 -7z m-931 -75 c50 -6 47 -1 63 -97 4 -29 12 -38 36 -47 29
-10 35 -8 81 29 28 22 55 37 62 33 6 -4 36 -25 66 -46 30 -22 56 -41 58 -42 1
-1 -7 -29 -19 -62 -21 -58 -21 -60 -4 -87 16 -24 23 -27 52 -22 110 19 94 26
132 -61 l33 -78 -47 -40 c-41 -36 -46 -45 -43 -74 3 -31 8 -36 58 -54 30 -12
58 -26 62 -31 5 -7 8 -4 8 7 0 9 -3 17 -7 17 -5 0 -21 12 -37 26 l-29 26 28
59 c25 51 32 58 52 54 13 -3 34 -7 47 -10 15 -3 29 2 41 15 17 19 17 22 1 65
-18 45 -18 45 6 65 12 10 38 27 55 37 l33 17 33 -32 c29 -28 37 -31 59 -23 20
8 27 19 34 58 l9 48 66 3 66 3 13 -46 c11 -39 16 -45 40 -45 19 0 37 11 59 35
l30 35 57 -27 56 -28 -7 -51 c-8 -70 7 -83 74 -62 l47 15 37 -53 37 -53 -30
-35 c-42 -47 -34 -83 20 -92 54 -9 58 -13 65 -79 l7 -60 -38 -14 c-76 -27 -83
-52 -28 -101 l37 -32 -24 -51 c-31 -69 -28 -67 -78 -56 -39 9 -47 7 -64 -10
-19 -18 -19 -20 -1 -66 15 -40 15 -48 3 -55 -8 -5 -29 -20 -48 -34 -19 -14
-38 -26 -43 -26 -4 0 -23 14 -42 30 -30 26 -37 29 -59 19 -18 -8 -26 -23 -33
-57 l-9 -47 -65 0 -65 0 -14 42 c-12 33 -20 42 -42 45 -21 3 -33 -3 -53 -28
-15 -19 -22 -35 -16 -39 6 -4 4 -17 -6 -36 -21 -42 -12 -59 31 -59 31 0 37 -4
50 -36 21 -50 19 -61 -12 -76 -39 -19 -41 -49 -3 -70 31 -17 36 -38 24 -85 -5
-17 -14 -23 -34 -23 -16 0 -36 -7 -45 -16 -14 -15 -14 -19 4 -49 l19 -33 -34
-33 c-34 -33 -36 -33 -63 -18 -39 23 -61 9 -61 -40 0 -36 -2 -39 -41 -50 -44
-13 -44 -13 -70 32 -15 26 -43 20 -63 -14 -17 -29 -21 -31 -59 -25 -54 9 -57
12 -57 52 0 43 -19 52 -59 28 l-31 -18 -34 33 c-33 32 -34 34 -18 60 23 40 10
61 -35 61 -36 0 -39 3 -51 40 -15 49 -15 60 0 60 16 0 48 31 48 47 0 7 -16 21
-35 30 -20 10 -34 22 -31 29 3 7 8 29 12 48 6 34 9 36 44 36 47 0 57 21 31 64
l-19 31 33 34 c32 33 33 33 58 16 40 -26 67 -12 67 35 0 38 2 40 42 51 40 10
43 10 63 -15 27 -34 52 -33 73 4 10 17 23 28 32 26 8 -2 27 -7 41 -10 22 -5
28 -13 33 -46 6 -35 9 -40 34 -40 25 1 26 2 9 14 -15 12 -17 22 -12 61 6 36 4
50 -10 65 -16 18 -20 18 -56 3 -49 -19 -60 -15 -99 42 l-32 47 32 33 c25 26
30 38 25 56 -9 30 -23 39 -57 39 -15 0 -33 7 -42 15 -18 18 -50 20 -64 3 -27
-34 -24 -59 12 -103 20 -24 36 -49 36 -55 0 -7 -21 -40 -46 -75 l-46 -63 -60
24 c-57 22 -61 23 -84 6 -23 -16 -24 -21 -19 -77 4 -33 7 -63 8 -67 1 -5 -32
-24 -73 -43 l-74 -34 -46 50 c-40 45 -48 49 -76 44 -26 -6 -33 -15 -49 -58
-10 -29 -21 -55 -24 -59 -7 -8 -144 2 -160 12 -6 3 -16 33 -22 66 -9 54 -14
61 -41 72 -29 11 -34 9 -80 -30 l-49 -41 -52 37 c-96 67 -90 55 -63 121 l24
59 -21 28 c-15 20 -28 28 -42 24 -11 -2 -40 -7 -65 -11 l-45 -7 -33 78 -34 77
29 22 c68 54 72 59 66 92 -5 29 -11 35 -65 55 l-60 22 7 80 c4 45 8 83 11 85
2 2 31 9 66 15 58 10 63 13 72 43 8 28 5 37 -20 69 -16 20 -33 42 -38 49 -7 9
2 30 29 69 56 82 56 82 120 56 l54 -22 29 21 c28 19 29 23 21 63 -16 83 -15
85 57 118 37 16 72 30 79 30 6 0 26 -20 45 -45 26 -34 40 -45 61 -45 36 0 54
19 74 80 16 49 17 50 53 45 20 -2 58 -7 84 -10z m2320 -56 c116 -24 209 -95
265 -201 25 -47 28 -64 28 -148 0 -87 -2 -99 -29 -145 -16 -27 -80 -102 -142
-166 -111 -113 -134 -147 -134 -193 0 -76 -233 -54 -317 29 -30 30 -32 35 -22
66 12 44 5 91 -34 209 -27 82 -31 110 -31 205 -1 97 2 115 23 155 49 94 133
160 236 186 65 16 92 16 157 3z m-313 -879 c64 -43 141 -64 218 -57 66 5 84
-3 62 -30 -23 -26 -179 -14 -251 21 -57 27 -103 70 -92 87 8 14 15 11 63 -21z
m-14 -75 c57 -43 108 -57 193 -54 60 2 67 1 67 -17 0 -15 -10 -21 -45 -28 -95
-18 -261 48 -268 107 -2 15 -1 27 2 27 3 0 26 -16 51 -35z m132 -124 c49 -2
73 -7 70 -15 -6 -17 -136 -86 -153 -79 -7 3 -14 9 -14 14 0 4 -13 30 -30 56
-16 26 -30 55 -30 65 0 16 5 15 42 -9 33 -23 55 -28 115 -32z m-640 -177 c16
-4 23 -16 28 -45 10 -57 36 -68 82 -33 38 29 49 27 102 -17 23 -19 23 -22 11
-60 -19 -57 -6 -74 56 -74 48 0 48 0 68 -47 l19 -47 -31 -26 c-46 -39 -43 -67
11 -86 l42 -16 -3 -49 c-4 -58 -10 -65 -58 -73 -53 -9 -61 -38 -24 -82 l28
-34 -23 -31 -24 -31 26 -14 c16 -9 28 -10 30 -4 7 21 19 33 40 39 16 5 23 2
28 -14 7 -22 25 -26 42 -9 18 18 53 1 53 -27 0 -19 5 -24 24 -24 35 0 53 -26
37 -52 -14 -22 -14 -21 17 -37 28 -15 29 -51 2 -58 -22 -6 -26 -23 -9 -40 19
-19 1 -53 -28 -53 -22 0 -25 -4 -20 -26 6 -32 -32 -55 -57 -34 -13 10 -17 8
-27 -14 -15 -32 -55 -36 -64 -6 -9 29 -25 24 -63 -20 -41 -48 -37 -75 12 -84
28 -5 35 -12 40 -37 11 -57 8 -67 -28 -80 -47 -17 -52 -43 -15 -74 l30 -24
-21 -42 c-21 -40 -23 -41 -61 -36 -48 6 -66 -16 -48 -57 15 -33 8 -48 -34 -71
l-36 -19 -25 23 c-33 31 -60 21 -72 -27 -9 -35 -11 -37 -56 -40 -45 -3 -46 -2
-58 32 -14 44 -45 48 -75 11 l-20 -26 -43 18 c-42 17 -43 19 -39 58 4 53 -14
68 -60 49 -32 -14 -33 -14 -59 26 l-27 41 22 30 c29 39 21 69 -19 69 -34 0
-50 23 -50 73 0 30 4 35 33 43 43 13 49 49 12 78 l-27 22 21 43 c22 41 23 42
61 36 31 -5 40 -3 48 12 5 10 6 27 1 38 -14 36 -9 50 27 73 l35 23 29 -21 c40
-28 63 -23 71 17 8 39 5 43 -37 43 -33 0 -44 16 -44 67 0 36 -42 41 -82 10
l-32 -25 -43 30 c-24 17 -43 33 -43 36 0 3 5 22 11 43 16 53 1 71 -58 67 -44
-3 -44 -3 -65 46 l-22 49 32 27 c46 38 43 66 -11 89 l-43 18 6 54 5 53 42 9
c58 11 71 36 38 75 -31 38 -31 45 3 93 31 44 31 44 77 25 50 -21 70 -4 63 57
l-5 45 51 22 51 21 26 -30 c37 -44 67 -41 86 9 15 36 19 40 52 40 20 0 46 -3
58 -6z m-1777 -354 c25 -25 25 -41 -2 -93 -40 -80 -66 -237 -38 -237 6 0 10 5
10 11 0 14 79 5 110 -11 23 -12 27 -45 6 -53 -17 -7 -96 12 -115 27 -23 18 -6
-38 34 -114 127 -240 151 -308 139 -394 -18 -125 -98 -286 -142 -286 -27 0
-52 32 -52 65 0 18 16 72 37 121 60 146 53 192 -53 356 -86 132 -124 316 -91
445 39 152 103 217 157 163z m297 -76 c24 -24 25 -30 20 -85 -9 -81 -41 -174
-84 -239 -36 -54 -138 -160 -154 -160 -5 0 -22 21 -38 47 l-29 47 48 43 c27
24 60 63 73 86 34 58 67 158 67 205 0 39 14 66 40 75 26 9 30 8 57 -19z m-167
-9 c38 -9 45 -15 45 -36 0 -21 -4 -24 -35 -23 -52 2 -120 23 -127 40 -9 24 16
45 46 37 14 -3 46 -12 71 -18z m-35 -113 c48 -14 61 -21 63 -40 4 -29 -16 -36
-69 -22 -24 6 -61 16 -81 21 -31 8 -38 14 -38 34 0 22 4 25 33 24 17 0 59 -8
92 -17z m951 -87 c8 -31 30 -32 53 -4 17 21 18 21 49 5 27 -14 32 -21 30 -49
-3 -31 -2 -32 34 -29 30 2 40 -2 54 -23 15 -23 15 -27 -1 -52 -17 -25 -17 -27
1 -40 10 -7 23 -13 30 -13 13 0 27 -56 18 -71 -3 -5 -11 -9 -18 -9 -8 0 -19
-7 -26 -15 -11 -13 -9 -20 9 -39 21 -22 22 -26 7 -53 -12 -25 -20 -29 -44 -25
-36 5 -45 -8 -32 -42 8 -22 5 -28 -21 -47 -28 -19 -31 -20 -48 -5 -26 23 -41
20 -52 -13 -8 -23 -17 -30 -44 -33 -30 -3 -36 -1 -44 24 -12 33 -31 36 -56 8
-16 -18 -20 -18 -46 -5 -20 11 -29 24 -31 47 -3 31 -5 33 -38 30 -30 -2 -38 2
-52 26 -16 27 -16 29 3 49 19 19 19 21 4 37 -9 9 -25 16 -36 16 -15 0 -19 7
-19 35 0 29 5 37 25 45 28 11 34 47 10 56 -18 7 -19 24 -4 57 9 19 18 24 43
23 30 -1 31 1 29 35 -2 28 3 38 24 51 24 14 29 14 50 1 30 -20 53 -10 53 22 0
23 4 25 40 25 34 0 41 -4 46 -25z m-1141 -302 l28 -46 -29 -21 c-99 -69 -135
-135 -150 -276 -8 -79 -26 -118 -62 -131 -23 -9 -30 -7 -49 16 -26 30 -27 36
-12 141 21 150 68 234 178 315 37 27 67 49 68 49 0 0 13 -21 28 -47z m24 -138
c68 -18 86 -34 68 -59 -12 -16 -16 -16 -80 -1 -75 19 -97 36 -77 60 15 18 21
18 89 0z m-74 -106 c142 -37 146 -39 143 -62 -3 -19 -8 -22 -48 -20 -70 4
-164 35 -168 57 -2 10 2 22 10 27 16 11 15 11 63 -2z m2 -135 c72 -17 93 -28
93 -51 0 -24 -27 -26 -106 -8 -77 17 -96 33 -74 60 15 18 5 18 87 -1z m1642
-2753 c56 -87 97 -168 90 -175 -6 -6 -210 -26 -267 -26 l-43 0 48 43 c27 23
59 49 73 58 l24 16 -24 13 c-56 30 -166 7 -230 -47 -80 -69 -109 -182 -75
-298 17 -59 75 -181 116 -242 24 -37 18 -40 -35 -18 l-36 15 0 -52 -1 -53 -24
30 c-29 35 -107 190 -131 260 -21 63 -30 207 -15 261 38 140 216 255 374 242
l55 -4 12 38 c14 49 21 44 89 -61z m548 -77 c62 -29 107 -78 142 -154 22 -46
26 -69 26 -145 0 -103 -18 -161 -71 -231 -19 -24 -34 -47 -34 -50 0 -3 17 -4
38 -3 20 2 37 -1 37 -7 1 -10 -274 -229 -279 -223 -2 2 -6 91 -9 197 l-5 193
23 -34 c13 -18 36 -42 50 -51 27 -17 28 -17 56 10 42 40 79 122 86 188 19 182
-132 302 -282 223 -36 -18 -95 -78 -125 -127 l-22 -35 7 40 c3 22 9 49 12 59
5 17 1 18 -43 12 l-48 -6 42 43 c87 88 213 142 307 130 22 -3 63 -16 92 -29z
m-717 -786 c124 -48 138 -58 85 -58 -62 0 -73 -12 -53 -52 9 -18 38 -63 65
-100 l49 -66 46 52 c72 82 146 183 174 238 14 27 27 48 29 46 3 -2 0 -34 -6
-72 -6 -37 -8 -70 -5 -73 3 -3 31 -1 62 6 32 6 59 10 60 8 2 -1 -32 -29 -75
-60 -44 -32 -129 -105 -190 -163 -105 -98 -131 -117 -131 -94 0 6 -33 67 -72
137 l-73 127 -14 -37 c-7 -20 -16 -37 -20 -37 -5 0 -78 202 -89 247 -3 10 3
11 25 2 15 -6 75 -29 133 -51z"/>
<path d="M10530 7136 l0 -63 83 -6 c45 -4 112 -7 150 -7 l67 0 0 70 0 70 -150
0 -150 0 0 -64z"/>
<path d="M10520 6742 l0 -119 107 -6 c58 -4 126 -7 150 -7 l43 0 0 125 0 125
-150 0 -150 0 0 -118z m255 67 c5 -5 -40 -9 -108 -9 -100 0 -117 2 -117 16 0
13 14 14 108 8 59 -3 111 -10 117 -15z m-45 -38 c0 -6 -4 -13 -10 -16 -14 -9
-180 6 -180 16 0 5 43 9 95 9 53 0 95 -4 95 -9z m-57 -46 c-4 -15 -125 -13
-131 3 -3 10 12 12 65 10 39 -2 67 -7 66 -13z m18 -35 c46 0 79 -4 79 -10 0
-6 -45 -10 -115 -10 -63 0 -115 4 -115 8 0 17 16 23 44 18 16 -3 64 -6 107 -6z"/>
<path d="M9610 6521 c-109 -35 -201 -114 -253 -220 -27 -54 -32 -78 -35 -156
-3 -70 0 -106 13 -146 51 -157 174 -262 340 -290 231 -40 458 141 473 377 l5
73 34 3 34 3 -63 93 c-34 50 -65 92 -69 92 -3 0 -26 -44 -51 -97 l-45 -98 40
-3 40 -3 -7 -57 c-14 -131 -113 -253 -233 -288 -164 -48 -328 27 -402 185 -34
74 -36 191 -4 263 78 172 284 250 447 169 35 -17 82 -51 105 -76 l41 -44 21
41 22 42 -51 47 c-108 100 -264 135 -402 90z"/>
<path d="M9688 6360 c-21 -4 -59 -20 -85 -36 -158 -98 -146 -340 21 -426 58
-31 166 -31 222 -1 144 76 178 262 72 388 -49 58 -150 91 -230 75z"/>
<path d="M10814 6350 c-68 -14 -111 -36 -163 -85 -206 -193 -65 -545 219 -545
93 0 204 56 254 129 46 66 59 111 59 199 0 73 2 82 18 82 29 0 23 11 -40 74
l-59 58 -16 -56 c-9 -30 -19 -68 -22 -84 -6 -27 -4 -29 25 -24 l31 4 0 -52 c0
-29 -5 -70 -12 -92 -13 -45 -77 -122 -118 -143 -167 -86 -370 31 -370 214 0
78 14 121 56 169 86 101 225 120 333 48 l49 -33 10 34 c10 32 9 34 -31 57 -78
46 -150 60 -223 46z"/>
<path d="M10795 6206 c-71 -32 -122 -119 -111 -189 16 -100 81 -159 180 -165
53 -3 66 0 104 25 44 29 92 106 92 147 0 71 -55 157 -117 182 -41 18 -109 17
-148 0z"/>
<path d="M10373 5501 c-60 -15 -124 -71 -150 -131 -20 -45 -20 -135 0 -180 52
-115 192 -172 302 -121 73 33 135 113 135 173 0 11 9 22 20 25 11 3 20 7 20 9
0 7 -52 104 -55 104 -5 0 -65 -96 -65 -104 0 -4 4 -5 8 -2 4 2 14 1 21 -3 11
-7 11 -16 2 -44 -29 -87 -100 -133 -193 -124 -221 20 -221 334 0 354 69 6 127
-18 162 -67 22 -31 22 -31 37 -11 12 18 11 24 -8 51 -43 58 -155 92 -236 71z"/>
<path d="M10368 5395 c-35 -20 -68 -75 -68 -116 0 -77 74 -144 148 -135 83 11
129 70 119 155 -4 38 -12 51 -44 78 -31 27 -47 33 -83 32 -25 0 -57 -6 -72
-14z"/>
<path d="M11982 6692 c-136 -49 -215 -176 -198 -316 4 -28 23 -109 42 -181 29
-104 35 -140 30 -182 -6 -49 -4 -53 24 -73 l30 -21 10 25 c20 54 31 193 21
281 -6 52 -7 95 -1 110 12 30 45 48 73 39 12 -4 49 -8 82 -10 76 -2 72 -1 79
-20 4 -12 1 -14 -14 -9 -12 4 -26 -1 -39 -14 -25 -25 -41 -27 -41 -6 0 18 -21
20 -39 3 -10 -11 -16 -8 -32 12 -19 25 -19 25 -35 5 -8 -11 -13 -29 -10 -40 3
-11 8 -63 11 -115 6 -89 -6 -191 -30 -252 -5 -13 2 -19 32 -27 21 -6 55 -11
76 -11 36 0 38 2 62 56 18 41 56 88 139 174 134 140 160 186 159 280 0 84 -30
153 -91 213 -26 25 -69 56 -97 68 -70 31 -174 35 -243 11z m233 -287 c29 -49
33 -120 9 -170 -8 -18 -40 -56 -70 -83 -30 -28 -59 -64 -65 -81 -15 -42 -29
-39 -29 7 0 33 8 45 61 97 33 33 67 73 76 89 20 39 13 118 -16 156 -25 35 -26
41 -6 34 9 -4 27 -25 40 -49z"/>
<path d="M11157 5304 c-34 -10 -67 -33 -107 -72 -48 -47 -61 -68 -75 -116 -62
-214 131 -410 344 -350 111 31 188 123 205 246 5 36 12 47 27 50 18 3 16 8
-17 58 -20 30 -40 59 -45 64 -7 8 -49 -65 -63 -111 -6 -20 -4 -23 20 -23 26 0
26 -2 20 -41 -29 -182 -235 -261 -368 -141 -101 91 -105 228 -9 323 89 90 209
92 306 6 l45 -38 12 25 c10 23 8 30 -16 55 -62 64 -189 94 -279 65z"/>
<path d="M11174 5181 c-62 -28 -89 -73 -89 -148 0 -69 17 -101 75 -140 68 -47
169 -24 224 50 31 42 30 140 -3 186 -27 37 -91 71 -136 71 -16 0 -48 -9 -71
-19z"/>
<path d="M11491 4731 c-10 -6 -12 -22 -9 -56 l6 -46 -52 -23 -51 -23 -30 35
c-37 41 -67 38 -84 -8 -10 -29 -9 -30 19 -30 24 0 30 -5 35 -31 10 -46 44 -55
75 -20 l25 28 44 -18 c42 -19 43 -20 38 -56 -7 -39 5 -63 30 -63 11 0 14 7 10
22 -4 12 -1 28 4 35 12 14 4 33 -16 33 -29 0 -33 55 -5 63 23 6 27 32 5 41
-23 8 3 59 27 53 44 -12 31 46 -14 62 -37 13 -39 13 -57 2z"/>
<path d="M11640 4653 c-98 -88 -12 -247 113 -212 50 14 79 51 88 112 6 43 4
55 -11 71 -18 19 -19 19 -26 -9 -5 -19 -3 -30 4 -33 30 -10 2 -86 -39 -108
-71 -36 -149 11 -149 92 0 33 59 94 92 94 12 0 36 -7 52 -15 35 -18 36 -18 36
0 0 21 -33 35 -84 35 -36 0 -52 -6 -76 -27z"/>
<path d="M11670 4610 c-26 -26 -26 -81 0 -105 46 -42 120 -10 120 52 0 42 -30
73 -70 73 -17 0 -39 -9 -50 -20z"/>
<path d="M11217 4406 c-94 -34 -157 -124 -157 -225 1 -204 237 -315 390 -183
58 49 83 103 86 181 1 41 6 66 15 72 11 6 5 17 -26 49 -21 22 -42 40 -46 40
-6 0 -39 -96 -39 -112 0 -3 10 -4 23 -4 17 1 23 -5 25 -29 5 -41 -14 -99 -45
-135 -83 -99 -235 -90 -305 19 -26 41 -29 53 -26 107 5 80 38 133 103 164 61
30 140 24 190 -15 l34 -26 7 27 c5 21 2 31 -16 44 -52 39 -144 50 -213 26z"/>
<path d="M11235 4304 c-43 -21 -68 -60 -73 -114 -8 -87 49 -150 137 -150 144
0 193 184 69 260 -39 24 -92 25 -133 4z"/>
<path d="M9472 5105 c-25 -32 -59 -132 -68 -201 -13 -108 35 -265 125 -404 50
-76 76 -157 67 -210 -3 -21 -22 -78 -41 -128 -38 -98 -42 -121 -23 -140 19
-19 46 4 77 66 47 93 64 165 59 249 -5 68 -11 85 -93 247 -79 157 -88 179 -92
243 -6 78 7 151 38 217 11 25 19 53 17 63 -5 29 -43 28 -66 -2z"/>
<path d="M10515 4758 c-37 -13 -82 -53 -102 -92 -19 -37 -19 -116 1 -154 33
-64 122 -110 183 -96 91 21 144 83 147 167 0 29 5 55 11 59 6 4 -3 20 -20 38
l-30 31 -12 -28 c-17 -40 -16 -64 2 -57 12 5 15 -3 15 -41 0 -42 -5 -52 -38
-86 -43 -42 -76 -54 -127 -45 -72 14 -124 89 -111 161 18 95 130 145 211 95
32 -20 33 -20 38 0 4 15 -4 24 -37 40 -46 22 -84 24 -131 8z"/>
<path d="M10499 4661 c-65 -66 -20 -171 73 -171 36 0 50 6 73 30 64 67 20 170
-73 170 -35 0 -49 -6 -73 -29z"/>
</g>
</svg>
